<!DOCTYPE svg PUBLIC "-//W3C//DTD SVG 1.1//EN" "http://www.w3.org/Graphics/SVG/1.1/DTD/svg11.dtd">
<!-- Uploaded to: SVG Repo, www.svgrepo.com, Transformed by: SVG Repo Mixer Tools -->
<svg version="1.1" id="Layer_1" xmlns="http://www.w3.org/2000/svg" xmlns:xlink="http://www.w3.org/1999/xlink" viewBox="0 0 512.00 512.00" xml:space="preserve" width="800px" height="800px" fill="#fff" stroke="#fff" transform="matrix(-1, 0, 0, 1, 0, 0)">
<g id="SVGRepo_bgCarrier" stroke-width="0"/>
<g id="SVGRepo_tracerCarrier" stroke-linecap="round" stroke-linejoin="round"/>
<g id="SVGRepo_iconCarrier"> <path style="fill:#F1F8E8;" d="M460.265,326.983c0-78.815-56.587-191.204-131.345-215.893l-29.798-11.937l-29.798,11.937 c-74.759,24.69-131.345,137.078-131.345,215.893c0,61.005,33.902,114.089,83.893,141.448c-24.067,0-31.637,19.507-31.637,43.568 h217.774c0-24.062-7.57-43.568-31.632-43.568C426.361,441.072,460.265,387.989,460.265,326.983z"/> <path style="fill:#F1F8E8FE9BF;" d="M358.804,47.746H183.038v23.873h175.766c6.593,0,11.937-5.345,11.937-11.937 C370.74,53.091,365.396,47.746,358.804,47.746z"/> <g> <path style="fill:#F1F8E8C7576;" d="M206.911,59.683c0,33.414-31.441,59.683-77.588,59.683S51.735,93.097,51.735,59.683 S83.176,0,129.323,0S206.911,26.269,206.911,59.683z"/> <path style="fill:#F1F8E8C7576;" d="M401.96,279.237H196.28c-6.768,14.521-10.558,30.697-10.558,47.746 c0,62.527,50.87,113.397,113.397,113.397s113.397-50.87,113.397-113.397C412.518,309.934,408.73,293.757,401.96,279.237"/> </g> <path style="fill:#F1F8E8CB5B5;" d="M287.184,279.237v113.397c0,6.591,5.344,11.937,11.937,11.937s11.937-5.345,11.937-11.937V279.237 L299.121,267.3L287.184,279.237z"/> <rect x="287.182" y="87.221" style="fill:#F1F8E8C7576;" width="23.873" height="192.024"/> <rect x="269.277" y="8.277" style="fill:#F1F8E8FD37D;" width="59.683" height="102.81"/> </g>
</svg>